<svg width="548" height="672" viewBox="0 0 548 672" fill="none" xmlns="http://www.w3.org/2000/svg">
<path d="M476.987 136.644V156.144L460.111 165.896L443.235 156.144V136.644L460.111 126.892L476.987 136.644Z" fill="#00DAE5"/>
<path d="M443.235 136.644V156.144L426.355 165.896L409.479 156.144V136.644L426.355 126.892L443.235 136.644Z" fill="#00DAE5"/>
<path d="M389.992 165.892C379.23 165.892 370.505 157.161 370.505 146.392C370.505 135.623 379.23 126.892 389.992 126.892C400.754 126.892 409.479 135.623 409.479 146.392C409.479 157.161 400.754 165.892 389.992 165.892Z" fill="#0041E2"/>
<path d="M199.396 153.78V133.6V124.646L216.272 134.399V153.898L199.396 163.646V153.78Z" fill="#FF007A"/>
<path d="M182.521 153.78V133.6V124.646L199.397 134.399V153.898L182.521 163.646V153.78Z" fill="#FF007A"/>
<path d="M98.0934 163.646C87.3312 163.646 78.6067 154.916 78.6067 144.146C78.6067 133.377 87.3312 124.646 98.0934 124.646C108.856 124.646 117.58 133.377 117.58 144.146C117.58 154.916 108.856 163.646 98.0934 163.646Z" fill="#F9001E"/>
<path d="M193.21 176.188V195.687L176.334 205.435L159.458 195.687V176.188L176.334 166.435L193.21 176.188Z" fill="#00DAE5"/>
<path d="M226.902 177.07V196.57L210.022 206.318L193.146 196.57V177.07L210.022 167.318L226.902 177.07Z" fill="#00DAE5"/>
<path d="M527.535 247.223C516.773 247.223 508.048 238.493 508.048 227.724C508.048 216.954 516.773 208.224 527.535 208.224C538.297 208.224 547.022 216.954 547.022 227.724C547.022 238.493 538.297 247.223 527.535 247.223Z" fill="#FF007A"/>
<path d="M376.789 176.183V195.687L359.913 205.435L343.033 195.687V176.183L359.913 166.435L376.789 176.183Z" fill="#F9001E"/>
<path d="M244.87 49.0505V68.5547L227.994 78.3023L211.113 68.5547V49.0505L227.994 39.303L244.87 49.0505Z" fill="#F9001E"/>
<path d="M431.664 185.935C431.663 191.055 433.674 195.97 437.263 199.619C440.852 203.268 445.731 205.358 450.847 205.439H493.678C498.847 205.439 503.805 203.384 507.46 199.727C511.116 196.069 513.169 191.108 513.169 185.935C513.169 180.762 511.116 175.801 507.46 172.143C503.805 168.486 498.847 166.431 493.678 166.431H450.847C445.731 166.512 440.852 168.602 437.263 172.251C433.674 175.9 431.663 180.815 431.664 185.935Z" fill="#83CBDB"/>
<path d="M50.5325 186.822C50.5319 191.942 52.543 196.857 56.132 200.506C59.7209 204.155 64.5998 206.246 69.7156 206.327H112.547C117.716 206.327 122.674 204.272 126.329 200.614C129.985 196.956 132.038 191.995 132.038 186.822C132.038 181.65 129.985 176.689 126.329 173.031C122.674 169.373 117.716 167.318 112.547 167.318H69.7156C64.5998 167.399 59.7209 169.49 56.132 173.139C52.543 176.788 50.5319 181.703 50.5325 186.822Z" fill="#83CBDB"/>
<path d="M530.045 195.569V175.389V166.435L546.921 176.188V195.687L530.045 205.435V195.569Z" fill="#FFDB2C"/>
<path d="M513.17 195.569V175.389V166.435L530.046 176.188V195.687L513.17 205.435V195.569Z" fill="#FFDB2C"/>
<path d="M406.76 205.435C395.997 205.435 387.273 196.704 387.273 185.935C387.273 175.166 395.997 166.435 406.76 166.435C417.522 166.435 426.246 175.166 426.246 185.935C426.246 196.704 417.522 205.435 406.76 205.435Z" fill="#00DAE5"/>
<path d="M245.924 146.397C245.923 151.516 247.935 156.431 251.524 160.08C255.113 163.729 259.991 165.82 265.107 165.901H307.943C313.112 165.901 318.07 163.846 321.725 160.188C325.381 156.53 327.434 151.569 327.434 146.397C327.434 141.224 325.381 136.263 321.725 132.605C318.07 128.947 313.112 126.892 307.943 126.892H265.107C259.991 126.973 255.113 129.064 251.524 132.713C247.935 136.362 245.923 141.277 245.924 146.397Z" fill="#00DAE5"/>
<path d="M508.043 217.972V237.476L491.168 247.223L474.292 237.476V217.972L491.168 208.224L508.043 217.972Z" fill="#66AF72"/>
<path d="M351.755 237.358V217.178V208.224L368.631 217.972V237.476L351.755 247.223V237.358Z" fill="#00DAE5"/>
<path d="M334.88 237.358V217.178V208.224L351.756 217.972V237.476L334.88 247.223V237.358Z" fill="#00DAE5"/>
<path d="M318 237.358V217.178V208.224L334.881 217.972V237.476L318 247.223V237.358Z" fill="#00DAE5"/>
<path d="M453.879 247.223C443.117 247.223 434.392 238.493 434.392 227.724C434.392 216.954 443.117 208.224 453.879 208.224C464.642 208.224 473.366 216.954 473.366 227.724C473.366 238.493 464.642 247.223 453.879 247.223Z" fill="#F9001E"/>
<path d="M168 226.125C167.999 231.245 170.01 236.16 173.599 239.809C177.188 243.458 182.067 245.549 187.183 245.63H230.018C235.188 245.63 240.146 243.575 243.801 239.917C247.456 236.259 249.51 231.298 249.51 226.125C249.51 220.952 247.456 215.991 243.801 212.334C240.146 208.676 235.188 206.621 230.018 206.621H187.183C182.067 206.702 177.188 208.793 173.599 212.442C170.01 216.091 167.999 221.005 168 226.125Z" fill="#FFDB2C"/>
<path d="M139 481.033C138.999 486.153 141.01 491.068 144.599 494.717C148.188 498.366 153.067 500.456 158.183 500.537H201.018C206.188 500.537 211.146 498.482 214.801 494.825C218.456 491.167 220.51 486.206 220.51 481.033C220.51 475.86 218.456 470.899 214.801 467.241C211.146 463.584 206.188 461.529 201.018 461.529H158.183C153.067 461.61 148.188 463.7 144.599 467.349C141.01 470.998 138.999 475.913 139 481.033Z" fill="#F9001E"/>
<path d="M316.669 104.848C316.669 109.968 318.68 114.882 322.269 118.531C325.858 122.18 330.737 124.271 335.852 124.352H378.688C383.858 124.352 388.815 122.297 392.471 118.639C396.126 114.982 398.179 110.021 398.179 104.848C398.179 99.6749 396.126 94.7139 392.471 91.0561C388.815 87.3984 383.858 85.3435 378.688 85.3435H335.852C330.737 85.4245 325.858 87.5151 322.269 91.1641C318.68 94.8131 316.669 99.7279 316.669 104.848Z" fill="#FFDB2C"/>
<path d="M276.799 166.435H315.773V205.435H276.799V166.435Z" fill="#66AF72"/>
<path d="M385.338 384.216V404.396V413.354L368.462 403.602V384.102L385.338 374.35V384.216Z" fill="#00DAE5"/>
<path d="M308.831 258.867V278.367L291.951 288.119L275.075 278.367V258.867L291.951 249.115L308.831 258.867Z" fill="#F9001E"/>
<path d="M275.075 258.867V278.367L258.199 288.119L241.323 278.367V258.867L258.199 249.115L275.075 258.867Z" fill="#F9001E"/>
<path d="M471.921 258.867V278.367L455.04 288.119L438.164 278.367V258.867L455.04 249.115L471.921 258.867Z" fill="#B2B2B2"/>
<path d="M373.073 310.358C373.072 315.478 375.084 320.393 378.672 324.042C382.261 327.691 387.14 329.781 392.256 329.862H435.092C440.261 329.862 445.219 327.808 448.874 324.15C452.53 320.492 454.583 315.531 454.583 310.358C454.583 305.185 452.53 300.224 448.874 296.567C445.219 292.909 440.261 290.854 435.092 290.854H392.256C387.14 290.935 382.261 293.026 378.672 296.675C375.084 300.324 373.072 305.238 373.073 310.358Z" fill="#83CBDB"/>
<path d="M159.876 319.974V299.794V290.84L176.752 300.588V320.092L159.876 329.84V319.974Z" fill="#D6B994"/>
<path d="M142.999 319.974V299.794V290.84L159.875 300.588V320.092L142.999 329.84V319.974Z" fill="#D6B994"/>
<path d="M377.039 288.119C366.277 288.119 357.552 279.389 357.552 268.619C357.552 257.85 366.277 249.12 377.039 249.12C387.801 249.12 396.526 257.85 396.526 268.619C396.526 279.389 387.801 288.119 377.039 288.119Z" fill="#FFDB2C"/>
<path d="M508.197 249.115H547.171V288.114H508.197V249.115Z" fill="#00DAE5"/>
<path d="M508.197 258.985V279.165V288.119L491.321 278.367V258.867L508.197 249.115V258.985Z" fill="#0041E2"/>
<path d="M491.397 258.985V279.165V288.119L474.521 278.367V258.867L491.397 249.115V258.985Z" fill="#0041E2"/>
<path d="M320.025 49.173V69.3531V78.3068L303.15 68.5547V49.0551L320.025 39.303V49.173Z" fill="#0041E2"/>
<path d="M303.225 49.173V69.3531V78.3068L286.349 68.5547V49.0551L303.225 39.303V49.173Z" fill="#0041E2"/>
<path d="M438.165 258.867V278.367L421.289 288.119L404.413 278.367V258.867L421.289 249.115L438.165 258.867Z" fill="#B2B2B2"/>
<path d="M189.909 515.076V534.575L173.029 544.327L156.153 534.575V515.076L173.029 505.323L189.909 515.076Z" fill="#FFDB2C"/>
<path d="M156.153 515.076V534.575L139.277 544.327L122.401 534.575V515.076L139.277 505.323L156.153 515.076Z" fill="#FFDB2C"/>
<path d="M241.325 258.867V278.367L224.445 288.119L207.569 278.367V258.867L224.445 249.115L241.325 258.867Z" fill="#F9001E"/>
<path d="M323.952 278.249V258.069V249.115L340.828 258.867V278.367L323.952 288.119V278.249Z" fill="#66AF72"/>
<path d="M151.875 258.985V279.165V288.119L134.999 278.367V258.867L151.875 249.115V258.985Z" fill="#FF007A"/>
<path d="M163.98 91.8448V112.025V120.979L147.105 111.226V91.7268L163.98 81.9747V91.8448Z" fill="#FF9700"/>
<path d="M0 268.628C-0.000640869 273.748 2.01059 278.663 5.59953 282.312C9.18846 285.961 14.0673 288.051 19.1831 288.132H62.0188C67.1882 288.132 72.1459 286.078 75.8012 282.42C79.4566 278.762 81.5101 273.801 81.5101 268.628C81.5101 263.455 79.4566 258.494 75.8012 254.837C72.1459 251.179 67.1882 249.124 62.0188 249.124H19.1831C14.0673 249.205 9.18846 251.296 5.59953 254.945C2.01059 258.594 -0.000640869 263.508 0 268.628Z" fill="#00DAE5"/>
<path d="M478.127 319.974V299.794V290.84L495.002 300.588V320.092L478.127 329.84V319.974Z" fill="#FF9700"/>
<path d="M547.285 300.706V320.886V329.84L530.409 320.092V300.588L547.285 290.84V300.706Z" fill="#B2B2B2"/>
<path d="M458.681 319.974V299.794V290.84L475.557 300.588V320.092L458.681 329.84V319.974Z" fill="#D6B994"/>
<path d="M530.408 300.588V320.092L513.528 329.84L496.652 320.092V300.588L513.528 290.84L530.408 300.588Z" fill="#66AF72"/>
<path d="M283.488 329.84C272.725 329.84 264.001 321.109 264.001 310.34C264.001 299.571 272.725 290.84 283.488 290.84C294.25 290.84 302.975 299.571 302.975 310.34C302.975 321.109 294.25 329.84 283.488 329.84Z" fill="#B2B2B2"/>
<path d="M67.5085 300.588V320.092L50.6326 329.84L33.7567 320.092V300.588L50.6326 290.84L67.5085 300.588Z" fill="#FFDB2C"/>
<path d="M33.7567 300.588V320.092L16.8807 329.84L0.000293732 320.092V300.588L16.8807 290.84L33.7567 300.588Z" fill="#FFDB2C"/>
<path d="M1.12402 209H40.0977V247.999H1.12402V209Z" fill="#B2B2B2"/>
<path d="M527.952 371.415C517.189 371.415 508.465 362.685 508.465 351.916C508.465 341.146 517.189 332.416 527.952 332.416C538.714 332.416 547.438 341.146 547.438 351.916C547.438 362.685 538.714 371.415 527.952 371.415Z" fill="#FF9700"/>
<path d="M454.143 361.545V341.365V332.412L471.019 342.164V361.663L454.143 371.415V361.545Z" fill="#B2B2B2"/>
<path d="M437.262 361.545V341.365V332.412L454.142 342.164V361.663L437.262 371.415V361.545Z" fill="#B2B2B2"/>
<path d="M420.385 361.545V341.365V332.412L437.261 342.164V361.663L420.385 371.415V361.545Z" fill="#B2B2B2"/>
<path d="M414.475 342.164V361.663L397.599 371.415L380.724 361.663V342.164L397.599 332.412L414.475 342.164Z" fill="#66AF72"/>
<path d="M158.399 134.399V153.898L141.523 163.65L124.647 153.898V134.399L141.523 124.646L158.399 134.399Z" fill="#66AF72"/>
<path d="M307.001 332H345.975V370.999H307.001V332Z" fill="#B2B2B2"/>
<path d="M254.508 342.164V361.663L237.632 371.415L220.752 361.663V342.164L237.632 332.412L254.508 342.164Z" fill="#FF9700"/>
<path d="M220.752 342.164V361.663L203.876 371.415L187 361.663V342.164L203.876 332.412L220.752 342.164Z" fill="#FF9700"/>
<path d="M40.4878 370.999C29.7255 370.999 21.0009 362.269 21.0009 351.5C21.0009 340.73 29.7255 332 40.4878 332C51.2501 332 59.9746 340.73 59.9746 351.5C59.9746 362.269 51.2501 370.999 40.4878 370.999Z" fill="#B2B2B2"/>
<path d="M45.0869 171.329V181.068L36.6603 185.935L28.2337 181.068V171.329L36.6603 166.458L45.0869 171.329Z" fill="#FF9700"/>
<path d="M28.1331 171.329V181.068L19.7065 185.935L11.2799 181.068V171.329L19.7065 166.458L28.1331 171.329Z" fill="#FF9700"/>
<path d="M45.0365 190.802V200.541L36.6099 205.412L28.1833 200.541V190.802L36.6099 185.935L45.0365 190.802Z" fill="#FF9700"/>
<path d="M28.0827 190.802V200.541L19.6561 205.412L11.2295 200.541V190.802L19.6561 185.935L28.0827 190.802Z" fill="#FF9700"/>
<path d="M434.493 213.118V222.852L426.066 227.724L417.635 222.852V213.118L426.066 208.247L434.493 213.118Z" fill="#FF007A"/>
<path d="M417.539 213.118V222.852L409.108 227.724L400.682 222.852V213.118L409.108 208.247L417.539 213.118Z" fill="#FF007A"/>
<path d="M433.55 232.591V242.329L425.123 247.201L416.692 242.329V232.591L425.123 227.724L433.55 232.591Z" fill="#FF007A"/>
<path d="M416.598 232.591V242.329L408.167 247.201L399.741 242.329V232.591L408.167 227.724L416.598 232.591Z" fill="#FF007A"/>
<path d="M367.468 131.786V141.525L359.041 146.392L350.61 141.525V131.786L359.041 126.919L367.468 131.786Z" fill="#FF9700"/>
<path d="M350.516 131.786V141.525L342.085 146.392L333.658 141.525V131.786L342.085 126.919L350.516 131.786Z" fill="#FF9700"/>
<path d="M367.417 151.263V160.997L358.99 165.869L350.564 160.997V151.263L358.99 146.392L367.417 151.263Z" fill="#FF9700"/>
<path d="M350.465 151.263V160.997L342.039 165.869L333.608 160.997V151.263L342.039 146.392L350.465 151.263Z" fill="#FF9700"/>
<path d="M508.642 337.746V347.484L500.211 352.351L491.784 347.484V337.746L500.211 332.879L508.642 337.746Z" fill="#D6B994"/>
<path d="M491.688 337.746V347.484L483.257 352.351L474.831 347.484V337.746L483.257 332.879L491.688 337.746Z" fill="#D6B994"/>
<path d="M508.592 357.223V366.961L500.165 371.828L491.734 366.961V357.223L500.165 352.351L508.592 357.223Z" fill="#D6B994"/>
<path d="M491.638 357.223V366.961L483.207 371.828L474.78 366.961V357.223L483.207 352.351L491.638 357.223Z" fill="#D6B994"/>
<path d="M361.401 295.735V305.473L352.974 310.34L344.548 305.473V295.735L352.974 290.863L361.401 295.735Z" fill="#0041E2"/>
<path d="M344.447 295.735V305.473L336.021 310.34L327.594 305.473V295.735L336.021 290.863L344.447 295.735Z" fill="#0041E2"/>
<path d="M361.346 315.207V324.946L352.92 329.817L344.493 324.946V315.207L352.92 310.34L361.346 315.207Z" fill="#0041E2"/>
<path d="M344.392 315.207V324.946L335.966 329.817L327.535 324.946V315.207L335.966 310.34L344.392 315.207Z" fill="#0041E2"/>
<path d="M494.294 456.182C483.532 456.182 474.807 447.452 474.807 436.682C474.807 425.913 483.532 417.182 494.294 417.182C505.056 417.182 513.781 425.913 513.781 436.682C513.781 447.452 505.056 456.182 494.294 456.182Z" fill="#F9001E"/>
<path d="M189.756 384.102V403.602L172.875 413.354L156 403.602V384.102L172.875 374.35L189.756 384.102Z" fill="#83CBDB"/>
<path d="M10.999 446.134V425.954V417L27.875 426.748V446.252L10.999 455.999V446.134Z" fill="#66AF72"/>
<path d="M240.875 384.216V404.396V413.354L223.999 403.602V384.102L240.875 374.35V384.216Z" fill="#F9001E"/>
<path d="M83.0004 403.134V382.954V374L99.8809 383.752V403.252L83.0004 413.004V403.134Z" fill="#00DAE5"/>
<path d="M455.322 456.182C444.56 456.182 435.836 447.452 435.836 436.682C435.836 425.913 444.56 417.182 455.322 417.182C466.085 417.182 474.809 425.913 474.809 436.682C474.809 447.452 466.085 456.182 455.322 456.182Z" fill="#D6B994"/>
<path d="M266.535 38.9993C255.772 38.9993 247.048 30.269 247.048 19.4997C247.048 8.73029 255.772 0 266.535 0C277.297 0 286.021 8.73029 286.021 19.4997C286.021 30.269 277.297 38.9993 266.535 38.9993Z" fill="#D6B994"/>
<path d="M466.49 393.854C466.489 398.974 468.5 403.889 472.089 407.538C475.678 411.187 480.557 413.278 485.673 413.359H528.509C533.678 413.359 538.636 411.304 542.291 407.646C545.946 403.988 548 399.027 548 393.854C548 388.681 545.946 383.72 542.291 380.063C538.636 376.405 533.678 374.35 528.509 374.35H485.673C480.557 374.431 475.678 376.522 472.089 380.171C468.5 383.82 466.489 388.734 466.49 393.854Z" fill="#83CBDB"/>
<path d="M428.473 374.35H467.447V413.349H428.473V374.35Z" fill="#0041E2"/>
<path d="M425.481 379.244V388.983L417.05 393.85L408.623 388.983V379.244L417.05 374.377L425.481 379.244Z" fill="#0041E2"/>
<path d="M408.523 379.244V388.983L400.096 393.85L391.67 388.983V379.244L400.096 374.377L408.523 379.244Z" fill="#0041E2"/>
<path d="M425.433 398.721V408.46L417.006 413.327L408.575 408.46V398.721L417.006 393.85L425.433 398.721Z" fill="#0041E2"/>
<path d="M408.477 398.721V408.46L400.046 413.327L391.619 408.46V398.721L400.046 393.85L408.477 398.721Z" fill="#0041E2"/>
<path d="M353.391 384.102V403.602L336.511 413.354L319.635 403.602V384.102L336.511 374.35L353.391 384.102Z" fill="#66AF72"/>
<path d="M319.633 384.102V403.602L302.757 413.354L285.881 403.602V384.102L302.757 374.35L319.633 384.102Z" fill="#66AF72"/>
<path d="M285.883 384.102V403.602L269.003 413.354L252.127 403.602V384.102L269.003 374.35L285.883 384.102Z" fill="#66AF72"/>
<path d="M0.00069046 374.35H38.9744V413.349H0.00069046V374.35Z" fill="#FF007A"/>
<path d="M530.661 446.316V426.136V417.182L547.537 426.93V446.434L530.661 456.182V446.316Z" fill="#FF007A"/>
<path d="M513.786 446.316V426.136V417.182L530.662 426.93V446.434L513.786 456.182V446.316Z" fill="#FF007A"/>
<path d="M415.4 446.316V426.136V417.182L432.28 426.93V446.434L415.4 456.182V446.316Z" fill="#66AF72"/>
<path d="M366.494 417.182H405.468V456.182H366.494V417.182Z" fill="#83CBDB"/>
<path d="M272.23 436.682C272.229 441.802 274.24 446.717 277.829 450.366C281.418 454.015 286.297 456.105 291.413 456.186H334.249C339.418 456.186 344.376 454.131 348.031 450.473C351.686 446.816 353.74 441.855 353.74 436.682C353.74 431.509 351.686 426.548 348.031 422.89C344.376 419.233 339.418 417.178 334.249 417.178H291.413C286.297 417.259 281.418 419.349 277.829 422.998C274.24 426.647 272.229 431.562 272.23 436.682Z" fill="#FF9700"/>
<path d="M238.406 422.076V431.815L229.979 436.682L221.553 431.815V422.076L229.979 417.205L238.406 422.076Z" fill="#B2B2B2"/>
<path d="M221.452 422.076V431.815L213.021 436.682L204.595 431.815V422.076L213.021 417.205L221.452 422.076Z" fill="#B2B2B2"/>
<path d="M238.356 441.549V451.287L229.929 456.159L221.502 451.287V441.549L229.929 436.682L238.356 441.549Z" fill="#B2B2B2"/>
<path d="M221.402 441.549V451.287L212.975 456.159L204.544 451.287V441.549L212.975 436.682L221.402 441.549Z" fill="#B2B2B2"/>
<path d="M131.602 426.93V446.434L114.726 456.182L97.8498 446.434V426.93L114.726 417.182L131.602 426.93Z" fill="#D6B994"/>
<path d="M547.239 469.726V489.226L530.363 498.978L513.487 489.226V469.726L530.363 459.974L547.239 469.726Z" fill="#00DAE5"/>
<path d="M513.487 469.726V489.226L496.611 498.978L479.731 489.226V469.726L496.611 459.974L513.487 469.726Z" fill="#00DAE5"/>
<path d="M479.731 469.726V489.226L462.855 498.978L445.979 489.226V469.726L462.855 459.974L479.731 469.726Z" fill="#00DAE5"/>
<path d="M426.509 489.108V468.928V459.974L443.384 469.726V489.226L426.509 498.978V489.108Z" fill="#83CBDB"/>
<path d="M404.42 489.135V468.955V460.001L421.296 469.748V489.253L404.42 499V489.135Z" fill="#0041E2"/>
<path d="M266.889 573.76V553.58V544.626L283.765 554.379V573.878L266.889 583.63V573.76Z" fill="#83CBDB"/>
<path d="M244.801 573.787V553.607V544.654L261.676 554.401V573.905L244.801 583.653V573.787Z" fill="#FF007A"/>
<path d="M271.751 661.35V641.17V632.216L288.627 641.963V661.468L271.751 671.215V661.35Z" fill="#0041E2"/>
<path d="M390.161 464.845V474.579L381.734 479.451L373.303 474.579V464.845L381.734 459.974L390.161 464.845Z" fill="#D6B994"/>
<path d="M373.207 464.845V474.579L364.776 479.451L356.35 474.579V464.845L364.776 459.974L373.207 464.845Z" fill="#D6B994"/>
<path d="M390.111 484.318V494.056L381.684 498.923L373.253 494.056V484.318L381.684 479.451L390.111 484.318Z" fill="#D6B994"/>
<path d="M373.159 484.318V494.056L364.728 498.923L356.301 494.056V484.318L364.728 479.451L373.159 484.318Z" fill="#D6B994"/>
<path d="M320.21 589.924V599.658L311.783 604.529L303.352 599.658V589.924L311.783 585.052L320.21 589.924Z" fill="#D6B994"/>
<path d="M303.256 589.924V599.658L294.825 604.529L286.398 599.658V589.924L294.825 585.052L303.256 589.924Z" fill="#D6B994"/>
<path d="M320.159 609.396V619.135L311.733 624.002L303.301 619.135V609.396L311.733 604.529L320.159 609.396Z" fill="#D6B994"/>
<path d="M303.208 609.396V619.135L294.776 624.002L286.35 619.135V609.396L294.776 604.529L303.208 609.396Z" fill="#D6B994"/>
<path d="M256.999 460.001H295.973V499H256.999V460.001Z" fill="#0041E2"/>
<path d="M237.999 81.9746H276.973V120.974H237.999V81.9746Z" fill="#B2B2B2"/>
<path d="M71.8689 460.406H110.843V499.405H71.8689V460.406Z" fill="#83CBDB"/>
<path d="M67.5085 469.748V489.253L50.6326 499L33.7568 489.253V469.748L50.6326 460.001L67.5085 469.748Z" fill="#00B1E0"/>
<path d="M33.7567 469.748V489.253L16.8807 499L0.000328064 489.253V469.748L16.8807 460.001L33.7567 469.748Z" fill="#00B1E0"/>
<path d="M466.37 510.521V520.255L457.943 525.127L449.512 520.255V510.521L457.943 505.65L466.37 510.521Z" fill="#FFDB2C"/>
<path d="M449.414 510.521V520.255L440.987 525.127L432.56 520.255V510.521L440.987 505.65L449.414 510.521Z" fill="#FFDB2C"/>
<path d="M466.319 529.994V539.732L457.893 544.604L449.461 539.732V529.994L457.893 525.127L466.319 529.994Z" fill="#FFDB2C"/>
<path d="M449.368 529.994V539.732L440.937 544.604L432.51 539.732V529.994L440.937 525.127L449.368 529.994Z" fill="#FFDB2C"/>
<path d="M352.314 525.127C352.313 530.247 354.325 535.163 357.915 538.812C361.505 542.461 366.385 544.551 371.502 544.631H414.333C419.502 544.631 424.46 542.576 428.115 538.918C431.771 535.261 433.824 530.3 433.824 525.127C433.824 519.954 431.771 514.993 428.115 511.335C424.46 507.677 419.502 505.623 414.333 505.623H371.502C366.385 505.702 361.505 507.792 357.915 511.442C354.325 515.091 352.313 520.006 352.314 525.127Z" fill="#B2B2B2"/>
<path d="M149.351 564.131C149.351 569.251 151.362 574.167 154.952 577.816C158.542 581.465 163.422 583.555 168.539 583.635H211.37C216.539 583.635 221.497 581.58 225.152 577.922C228.808 574.264 230.861 569.303 230.861 564.131C230.861 558.958 228.808 553.997 225.152 550.339C221.497 546.681 216.539 544.626 211.37 544.626H168.539C163.422 544.706 158.542 546.796 154.952 550.445C151.362 554.095 149.351 559.01 149.351 564.131Z" fill="#B2B2B2"/>
<path d="M333.254 534.761V514.581V505.623L350.13 515.375V534.874L333.254 544.626V534.761Z" fill="#F9001E"/>
<path d="M316.377 534.761V514.581V505.623L333.253 515.375V534.874L316.377 544.626V534.761Z" fill="#F9001E"/>
<path d="M300.435 515.375V534.874L283.555 544.626L266.679 534.874V515.375L283.555 505.623L300.435 515.375Z" fill="#66AF72"/>
<path d="M244.87 594.804V614.304L227.989 624.056L211.113 614.304V594.804L227.989 585.052L244.87 594.804Z" fill="#66AF72"/>
<path d="M98.0934 544.627C87.3311 544.627 78.6066 535.896 78.6066 525.127C78.6066 514.357 87.3311 505.627 98.0934 505.627C108.856 505.627 117.58 514.357 117.58 525.127C117.58 535.896 108.856 544.627 98.0934 544.627Z" fill="#FF007A"/>
<path d="M398.84 554.374V573.874L381.964 583.626L365.088 573.874V554.374L381.964 544.626L398.84 554.374Z" fill="#F9001E"/>
<path d="M365.088 554.374V573.874L348.207 583.626L331.331 573.874V554.374L348.207 544.626L365.088 554.374Z" fill="#F9001E"/>
<path d="M331.332 554.374V573.874L314.456 583.626L297.58 573.874V554.374L314.456 544.626L331.332 554.374Z" fill="#F9001E"/>
</svg>
